<svg width="116" height="51" viewBox="0 0 116 51" fill="none" xmlns="http://www.w3.org/2000/svg">
<rect width="40" height="32" rx="4" fill="#D90A14"/>
<path d="M52.7979 12.7314V14.6387H47.6387V20H45.2217V7.20312H53.4746V9.11035H47.6387V12.7314H52.7979ZM54.916 8.00293C54.916 7.65723 55.0332 7.37012 55.2676 7.1416C55.5078 6.91309 55.8301 6.79883 56.2344 6.79883C56.6387 6.79883 56.958 6.91309 57.1924 7.1416C57.4326 7.37012 57.5527 7.65723 57.5527 8.00293C57.5527 8.34277 57.4326 8.62695 57.1924 8.85547C56.958 9.08398 56.6387 9.19824 56.2344 9.19824C55.8301 9.19824 55.5078 9.08398 55.2676 8.85547C55.0332 8.62695 54.916 8.34277 54.916 8.00293ZM57.4033 10.4902V20H55.0742V10.4902H57.4033ZM64.1182 10.4902V12.1602H62.457V17.2578C62.457 17.6855 62.542 17.9668 62.7119 18.1016C62.8877 18.2305 63.1367 18.2949 63.459 18.2949C63.6113 18.2949 63.752 18.2861 63.8809 18.2686C64.0098 18.251 64.1182 18.2334 64.2061 18.2158L64.2148 19.9561C64.0215 20.0205 63.8018 20.0732 63.5557 20.1143C63.3154 20.1553 63.043 20.1758 62.7383 20.1758C61.9531 20.1758 61.3203 19.9678 60.8398 19.5518C60.3652 19.1357 60.1279 18.4326 60.1279 17.4424V12.1602H58.6689V10.4902H60.1279V8.15234H62.457V10.4902H64.1182Z" fill="white"/>
<path d="M65.8408 7.20312H68.9873L72.4854 16.8359L75.9746 7.20312H79.1299V20H76.7129V16.0537L76.9502 10.2354L73.3203 20H71.6416L68.0117 10.2178L68.2578 16.0537V20H65.8408V7.20312ZM86.9961 20C86.8848 19.7715 86.7998 19.4668 86.7412 19.0859C86.4775 19.3848 86.1406 19.6426 85.7305 19.8594C85.3262 20.0703 84.8369 20.1758 84.2627 20.1758C83.6475 20.1758 83.0967 20.0527 82.6104 19.8066C82.124 19.5605 81.7402 19.2236 81.459 18.7959C81.1777 18.3682 81.0371 17.8818 81.0371 17.3369C81.0371 16.3408 81.4092 15.5703 82.1533 15.0254C82.9033 14.4805 83.9902 14.208 85.4141 14.208H86.6533V13.5928C86.6533 13.1123 86.5273 12.7314 86.2754 12.4502C86.0234 12.1631 85.6338 12.0195 85.1064 12.0195C84.6377 12.0195 84.2656 12.1367 83.9902 12.3711C83.7148 12.6055 83.5771 12.9072 83.5771 13.2764H81.248C81.248 12.749 81.4121 12.2627 81.7402 11.8174C82.0684 11.3662 82.5312 11.0029 83.1289 10.7275C83.7266 10.4521 84.4297 10.3145 85.2383 10.3145C85.959 10.3145 86.6006 10.4375 87.1631 10.6836C87.7314 10.9238 88.1768 11.29 88.499 11.7822C88.8271 12.2686 88.9912 12.8779 88.9912 13.6104V17.7588C88.9912 18.667 89.1143 19.3643 89.3604 19.8506V20H86.9961ZM84.7373 18.3916C85.2061 18.3916 85.6074 18.2832 85.9414 18.0664C86.2754 17.8438 86.5127 17.5977 86.6533 17.3281V15.5879H85.5283C84.7959 15.5879 84.251 15.7314 83.8936 16.0186C83.542 16.3057 83.3662 16.6836 83.3662 17.1523C83.3662 17.5098 83.4863 17.8057 83.7266 18.04C83.9727 18.2744 84.3096 18.3916 84.7373 18.3916ZM96.9893 20L94.3525 16.0273L93.4033 16.9854V20H91.083V6.49121H93.4033V14.1553L93.9746 13.4346L96.5586 10.4902H99.3623L95.8467 14.4365L99.6787 20H96.9893ZM104.688 20.1758C103.728 20.1758 102.898 19.9707 102.201 19.5605C101.51 19.1504 100.977 18.5996 100.602 17.9082C100.227 17.2109 100.039 16.4316 100.039 15.5703V15.2188C100.039 14.2402 100.224 13.3848 100.593 12.6523C100.962 11.9141 101.475 11.3398 102.131 10.9297C102.793 10.5195 103.558 10.3145 104.425 10.3145C105.327 10.3145 106.083 10.5107 106.692 10.9033C107.308 11.2959 107.771 11.8438 108.081 12.5469C108.392 13.2441 108.547 14.0527 108.547 14.9727V15.9482H102.395C102.459 16.6455 102.702 17.2197 103.124 17.6709C103.552 18.1221 104.12 18.3477 104.829 18.3477C105.813 18.3477 106.599 17.9697 107.185 17.2139L108.354 18.4268C108.055 18.8721 107.601 19.2764 106.991 19.6396C106.382 19.9971 105.614 20.1758 104.688 20.1758ZM104.407 12.1426C103.833 12.1426 103.382 12.3418 103.054 12.7402C102.731 13.1387 102.523 13.6748 102.43 14.3486H106.262V14.1729C106.244 13.6221 106.092 13.1475 105.805 12.749C105.518 12.3447 105.052 12.1426 104.407 12.1426ZM115.314 10.4287L115.279 12.5908C115.01 12.5439 114.714 12.5205 114.392 12.5205C113.876 12.5205 113.457 12.6172 113.135 12.8105C112.812 13.0039 112.575 13.2764 112.423 13.6279V20H110.103V10.4902H112.3L112.37 11.6328C112.61 11.2227 112.912 10.9004 113.275 10.666C113.639 10.4316 114.061 10.3145 114.541 10.3145C114.84 10.3145 115.098 10.3525 115.314 10.4287Z" fill="#D90A14"/>
<path d="M6.88477 35.4688V36.3945H4.14258V44H3.0293V36.3945H0.292969V35.4688H6.88477ZM10.6055 37.625L10.5996 38.6328C10.4395 38.6016 10.2637 38.5859 10.0723 38.5859C9.70117 38.5859 9.39648 38.6699 9.1582 38.8379C8.91992 39.002 8.74219 39.2227 8.625 39.5V44H7.54102V37.6602H8.5957L8.61914 38.3867C8.7793 38.1289 8.98242 37.9238 9.22852 37.7715C9.47852 37.6191 9.77734 37.543 10.125 37.543C10.2031 37.543 10.293 37.5527 10.3945 37.5723C10.4961 37.5879 10.5664 37.6055 10.6055 37.625ZM15.2871 44C15.252 43.9219 15.2207 43.8242 15.1934 43.707C15.1699 43.5859 15.1504 43.4609 15.1348 43.332C14.9316 43.5469 14.6777 43.7324 14.373 43.8887C14.0684 44.041 13.7207 44.1172 13.3301 44.1172C12.9004 44.1172 12.5234 44.0332 12.1992 43.8652C11.8789 43.6973 11.6289 43.4727 11.4492 43.1914C11.2734 42.9062 11.1855 42.5879 11.1855 42.2363C11.1855 41.5566 11.4434 41.041 11.959 40.6895C12.4746 40.334 13.168 40.1562 14.0391 40.1562H15.1113V39.6523C15.1113 39.2773 14.998 38.9785 14.7715 38.7559C14.5488 38.5293 14.2168 38.416 13.7754 38.416C13.3652 38.416 13.0332 38.5176 12.7793 38.7207C12.5293 38.9199 12.4043 39.1523 12.4043 39.418H11.3203C11.3203 39.1133 11.4238 38.8184 11.6309 38.5332C11.8379 38.2441 12.1289 38.0078 12.5039 37.8242C12.8828 37.6367 13.3281 37.543 13.8398 37.543C14.5273 37.543 15.0918 37.7188 15.5332 38.0703C15.9746 38.4219 16.1953 38.9531 16.1953 39.6641V42.6172C16.1953 42.8281 16.2129 43.0527 16.248 43.291C16.2871 43.5293 16.3438 43.7344 16.418 43.9062V44H15.2871ZM13.4883 43.168C13.8789 43.168 14.2168 43.0703 14.502 42.875C14.791 42.6797 14.9941 42.4629 15.1113 42.2246V40.918H14.2148C13.5938 40.918 13.1152 41.0156 12.7793 41.2109C12.4434 41.4023 12.2754 41.6953 12.2754 42.0898C12.2754 42.3906 12.377 42.6465 12.5801 42.8574C12.7832 43.0645 13.0859 43.168 13.4883 43.168ZM20.5312 38.457C20.1836 38.457 19.877 38.5508 19.6113 38.7383C19.3457 38.9258 19.1367 39.1699 18.9844 39.4707V44H17.9004V37.6602H18.9258L18.9609 38.4512C19.1875 38.166 19.4609 37.9434 19.7812 37.7832C20.1016 37.623 20.459 37.543 20.8535 37.543C21.4785 37.543 21.9727 37.7188 22.3359 38.0703C22.7031 38.4219 22.8867 39.0137 22.8867 39.8457V44H21.7969V39.834C21.7969 39.3379 21.6875 38.9844 21.4688 38.7734C21.2539 38.5625 20.9414 38.457 20.5312 38.457ZM28.2246 42.3184C28.2246 42.1621 28.1895 42.0176 28.1191 41.8848C28.0527 41.748 27.9141 41.625 27.7031 41.5156C27.4961 41.4023 27.1836 41.3047 26.7656 41.2227C26.0586 41.0742 25.5 40.8633 25.0898 40.5898C24.6836 40.3125 24.4805 39.9141 24.4805 39.3945C24.4805 39.0586 24.5762 38.752 24.7676 38.4746C24.9629 38.1934 25.2363 37.9688 25.5879 37.8008C25.9434 37.6289 26.3574 37.543 26.8301 37.543C27.3379 37.543 27.7715 37.6328 28.1309 37.8125C28.4902 37.9922 28.7656 38.2324 28.957 38.5332C29.1484 38.8301 29.2441 39.1602 29.2441 39.5234H28.1602C28.1602 39.2617 28.0449 39.0156 27.8145 38.7852C27.5879 38.5508 27.2598 38.4336 26.8301 38.4336C26.3809 38.4336 26.0586 38.5312 25.8633 38.7266C25.668 38.9219 25.5703 39.1348 25.5703 39.3652C25.5703 39.5215 25.6094 39.6562 25.6875 39.7695C25.7656 39.8828 25.9082 39.9844 26.1152 40.0742C26.3262 40.1641 26.6309 40.2539 27.0293 40.3438C27.8105 40.5234 28.3848 40.7559 28.752 41.041C29.123 41.3262 29.3086 41.7246 29.3086 42.2363C29.3086 42.791 29.084 43.2441 28.6348 43.5957C28.1895 43.9434 27.5977 44.1172 26.8594 44.1172C26.3008 44.1172 25.8281 44.0176 25.4414 43.8184C25.0547 43.6191 24.7617 43.3613 24.5625 43.0449C24.3633 42.7285 24.2637 42.3945 24.2637 42.043H25.3535C25.3691 42.3398 25.4551 42.5762 25.6113 42.752C25.7676 42.9238 25.959 43.0469 26.1855 43.1211C26.4121 43.1914 26.6367 43.2266 26.8594 43.2266C27.3008 43.2266 27.6387 43.1406 27.873 42.9688C28.1074 42.7969 28.2246 42.5801 28.2246 42.3184ZM32.3496 44H31.2656V38.4922H30.2637V37.6602H31.2656V36.9922C31.2656 36.3086 31.4492 35.7852 31.8164 35.4219C32.1875 35.0586 32.6973 34.877 33.3457 34.877C33.584 34.877 33.834 34.9082 34.0957 34.9707L34.0371 35.8555C33.873 35.8203 33.6777 35.8027 33.4512 35.8027C33.1035 35.8027 32.832 35.9062 32.6367 36.1133C32.4453 36.3164 32.3496 36.6094 32.3496 36.9922V37.6602H33.6973V38.4922H32.3496V44ZM34.6172 40.9004V40.7656C34.6172 40.1523 34.7344 39.6035 34.9688 39.1191C35.2031 38.6348 35.5352 38.252 35.9648 37.9707C36.3945 37.6855 36.9043 37.543 37.4941 37.543C38.0918 37.543 38.6055 37.6855 39.0352 37.9707C39.4688 38.252 39.8027 38.6348 40.0371 39.1191C40.2715 39.6035 40.3887 40.1523 40.3887 40.7656V40.9004C40.3887 41.5098 40.2715 42.0586 40.0371 42.5469C39.8027 43.0312 39.4707 43.4141 39.041 43.6953C38.6113 43.9766 38.0996 44.1172 37.5059 44.1172C36.9121 44.1172 36.3984 43.9766 35.9648 43.6953C35.5352 43.4141 35.2031 43.0312 34.9688 42.5469C34.7344 42.0586 34.6172 41.5098 34.6172 40.9004ZM35.7012 40.7656V40.9004C35.7012 41.3184 35.7676 41.7051 35.9004 42.0605C36.0332 42.4121 36.2324 42.6953 36.498 42.9102C36.7676 43.1211 37.1035 43.2266 37.5059 43.2266C37.9043 43.2266 38.2363 43.1211 38.502 42.9102C38.7676 42.6953 38.9668 42.4121 39.0996 42.0605C39.2324 41.7051 39.2988 41.3184 39.2988 40.9004V40.7656C39.2988 40.3516 39.2305 39.9688 39.0938 39.6172C38.9609 39.2617 38.7617 38.9766 38.4961 38.7617C38.2305 38.543 37.8965 38.4336 37.4941 38.4336C37.0957 38.4336 36.7637 38.543 36.498 38.7617C36.2324 38.9766 36.0332 39.2617 35.9004 39.6172C35.7676 39.9688 35.7012 40.3516 35.7012 40.7656ZM44.8125 37.625L44.8066 38.6328C44.6465 38.6016 44.4707 38.5859 44.2793 38.5859C43.9082 38.5859 43.6035 38.6699 43.3652 38.8379C43.127 39.002 42.9492 39.2227 42.832 39.5V44H41.748V37.6602H42.8027L42.8262 38.3867C42.9863 38.1289 43.1895 37.9238 43.4355 37.7715C43.6855 37.6191 43.9844 37.543 44.332 37.543C44.4102 37.543 44.5 37.5527 44.6016 37.5723C44.7031 37.5879 44.7734 37.6055 44.8125 37.625ZM48.3516 38.457C47.9648 38.457 47.6543 38.5391 47.4199 38.7031C47.1855 38.8672 47.0098 39.084 46.8926 39.3535V44H45.8027V37.6602H46.834L46.8633 38.3516C47.0781 38.0977 47.3418 37.9004 47.6543 37.7598C47.9668 37.6152 48.3281 37.543 48.7383 37.543C49.1445 37.543 49.5059 37.625 49.8223 37.7891C50.1426 37.9492 50.3867 38.207 50.5547 38.5625C50.7656 38.2578 51.0391 38.0117 51.375 37.8242C51.7148 37.6367 52.1133 37.543 52.5703 37.543C53.25 37.543 53.7734 37.7246 54.1406 38.0879C54.5117 38.4512 54.6973 39.0332 54.6973 39.834V44H53.6074V39.8223C53.6074 39.291 53.4844 38.9316 53.2383 38.7441C52.9961 38.5527 52.668 38.457 52.2539 38.457C51.8164 38.457 51.4727 38.5879 51.2227 38.8496C50.9727 39.1074 50.8281 39.4219 50.7891 39.793V44H49.7051V39.8281C49.7051 39.332 49.582 38.9805 49.3359 38.7734C49.0898 38.5625 48.7617 38.457 48.3516 38.457ZM60.1172 35.4688L62.332 39.752L64.5527 35.4688H65.8359L62.8945 40.8125V44H61.7637V40.8125L58.8223 35.4688H60.1172ZM66.0938 40.9004V40.7656C66.0938 40.1523 66.2109 39.6035 66.4453 39.1191C66.6797 38.6348 67.0117 38.252 67.4414 37.9707C67.8711 37.6855 68.3809 37.543 68.9707 37.543C69.5684 37.543 70.082 37.6855 70.5117 37.9707C70.9453 38.252 71.2793 38.6348 71.5137 39.1191C71.748 39.6035 71.8652 40.1523 71.8652 40.7656V40.9004C71.8652 41.5098 71.748 42.0586 71.5137 42.5469C71.2793 43.0312 70.9473 43.4141 70.5176 43.6953C70.0879 43.9766 69.5762 44.1172 68.9824 44.1172C68.3887 44.1172 67.875 43.9766 67.4414 43.6953C67.0117 43.4141 66.6797 43.0312 66.4453 42.5469C66.2109 42.0586 66.0938 41.5098 66.0938 40.9004ZM67.1777 40.7656V40.9004C67.1777 41.3184 67.2441 41.7051 67.377 42.0605C67.5098 42.4121 67.709 42.6953 67.9746 42.9102C68.2441 43.1211 68.5801 43.2266 68.9824 43.2266C69.3809 43.2266 69.7129 43.1211 69.9785 42.9102C70.2441 42.6953 70.4434 42.4121 70.5762 42.0605C70.709 41.7051 70.7754 41.3184 70.7754 40.9004V40.7656C70.7754 40.3516 70.707 39.9688 70.5703 39.6172C70.4375 39.2617 70.2383 38.9766 69.9727 38.7617C69.707 38.543 69.373 38.4336 68.9707 38.4336C68.5723 38.4336 68.2402 38.543 67.9746 38.7617C67.709 38.9766 67.5098 39.2617 67.377 39.6172C67.2441 39.9688 67.1777 40.3516 67.1777 40.7656ZM77.1562 44L77.1328 43.373C76.9375 43.6074 76.6875 43.791 76.3828 43.9238C76.0781 44.0527 75.7109 44.1172 75.2812 44.1172C74.6602 44.1172 74.1582 43.9336 73.7754 43.5664C73.3926 43.1992 73.2012 42.5938 73.2012 41.75V37.6602H74.2852V41.7617C74.2852 42.1406 74.3398 42.4355 74.4492 42.6465C74.5625 42.8535 74.709 42.998 74.8887 43.0801C75.0684 43.1582 75.2559 43.1973 75.4512 43.1973C75.8926 43.1973 76.2461 43.1133 76.5117 42.9453C76.7773 42.7773 76.9746 42.5547 77.1035 42.2773V37.6602H78.1934V44H77.1562ZM82.9102 37.625L82.9043 38.6328C82.7441 38.6016 82.5684 38.5859 82.377 38.5859C82.0059 38.5859 81.7012 38.6699 81.4629 38.8379C81.2246 39.002 81.0469 39.2227 80.9297 39.5V44H79.8457V37.6602H80.9004L80.9238 38.3867C81.084 38.1289 81.2871 37.9238 81.5332 37.7715C81.7832 37.6191 82.082 37.543 82.4297 37.543C82.5078 37.543 82.5977 37.5527 82.6992 37.5723C82.8008 37.5879 82.8711 37.6055 82.9102 37.625ZM90.2871 44H87.2988V35.4688H90.0938C90.9688 35.4688 91.6504 35.6504 92.1387 36.0137C92.6309 36.373 92.877 36.9492 92.877 37.7422C92.877 38.1367 92.7637 38.4883 92.5371 38.7969C92.3145 39.1016 92.0078 39.3379 91.6172 39.5059C92.0977 39.6387 92.4648 39.8906 92.7188 40.2617C92.9766 40.6328 93.1055 41.0586 93.1055 41.5391C93.1055 42.3359 92.8477 42.9453 92.332 43.3672C91.8203 43.7891 91.1387 44 90.2871 44ZM90.0938 36.3945H88.4297V39.1016H90.1289C90.6172 39.1016 91.0078 38.9805 91.3008 38.7383C91.5977 38.4961 91.7461 38.1602 91.7461 37.7305C91.7461 37.2617 91.6094 36.9219 91.3359 36.7109C91.0664 36.5 90.6523 36.3945 90.0938 36.3945ZM91.9805 41.5508C91.9805 41.0742 91.8496 40.6992 91.5879 40.4258C91.3301 40.1484 90.9141 40.0098 90.3398 40.0098H88.4297V43.0801H90.2871C90.8223 43.0801 91.2383 42.9434 91.5352 42.6699C91.832 42.3926 91.9805 42.0195 91.9805 41.5508ZM94.3242 40.9004V40.7656C94.3242 40.1523 94.4414 39.6035 94.6758 39.1191C94.9102 38.6348 95.2422 38.252 95.6719 37.9707C96.1016 37.6855 96.6113 37.543 97.2012 37.543C97.7988 37.543 98.3125 37.6855 98.7422 37.9707C99.1758 38.252 99.5098 38.6348 99.7441 39.1191C99.9785 39.6035 100.096 40.1523 100.096 40.7656V40.9004C100.096 41.5098 99.9785 42.0586 99.7441 42.5469C99.5098 43.0312 99.1777 43.4141 98.748 43.6953C98.3184 43.9766 97.8066 44.1172 97.2129 44.1172C96.6191 44.1172 96.1055 43.9766 95.6719 43.6953C95.2422 43.4141 94.9102 43.0312 94.6758 42.5469C94.4414 42.0586 94.3242 41.5098 94.3242 40.9004ZM95.4082 40.7656V40.9004C95.4082 41.3184 95.4746 41.7051 95.6074 42.0605C95.7402 42.4121 95.9395 42.6953 96.2051 42.9102C96.4746 43.1211 96.8105 43.2266 97.2129 43.2266C97.6113 43.2266 97.9434 43.1211 98.209 42.9102C98.4746 42.6953 98.6738 42.4121 98.8066 42.0605C98.9395 41.7051 99.0059 41.3184 99.0059 40.9004V40.7656C99.0059 40.3516 98.9375 39.9688 98.8008 39.6172C98.668 39.2617 98.4688 38.9766 98.2031 38.7617C97.9375 38.543 97.6035 38.4336 97.2012 38.4336C96.8027 38.4336 96.4707 38.543 96.2051 38.7617C95.9395 38.9766 95.7402 39.2617 95.6074 39.6172C95.4746 39.9688 95.4082 40.3516 95.4082 40.7656ZM101.186 40.9004V40.7773C101.186 40.1328 101.289 39.5684 101.496 39.084C101.707 38.5957 102 38.2168 102.375 37.9473C102.75 37.6777 103.189 37.543 103.693 37.543C104.076 37.543 104.412 37.6074 104.701 37.7363C104.994 37.8652 105.244 38.0508 105.451 38.293V35H106.541V44H105.545L105.492 43.3203C105.285 43.5742 105.031 43.7715 104.73 43.9121C104.43 44.0488 104.08 44.1172 103.682 44.1172C103.186 44.1172 102.75 43.9785 102.375 43.7012C102 43.4199 101.707 43.0371 101.496 42.5527C101.289 42.0684 101.186 41.5176 101.186 40.9004ZM102.275 40.7773V40.9004C102.275 41.3184 102.334 41.7031 102.451 42.0547C102.568 42.4023 102.75 42.6797 102.996 42.8867C103.242 43.0938 103.561 43.1973 103.951 43.1973C104.33 43.1973 104.639 43.1113 104.877 42.9395C105.115 42.7676 105.307 42.5469 105.451 42.2773V39.3594C105.311 39.0977 105.119 38.8828 104.877 38.7148C104.639 38.543 104.334 38.457 103.963 38.457C103.568 38.457 103.246 38.5625 102.996 38.7734C102.75 38.9844 102.568 39.2656 102.451 39.6172C102.334 39.9688 102.275 40.3555 102.275 40.7773ZM108.715 37.6602L110.303 42.4062L111.773 37.6602H112.934L110.391 44.9785C110.312 45.1855 110.199 45.4121 110.051 45.6582C109.906 45.9082 109.709 46.1211 109.459 46.2969C109.209 46.4727 108.893 46.5605 108.51 46.5605C108.424 46.5605 108.314 46.5488 108.182 46.5254C108.049 46.502 107.955 46.4824 107.9 46.4668L107.895 45.5879C107.926 45.5918 107.975 45.5957 108.041 45.5996C108.111 45.6074 108.16 45.6113 108.188 45.6113C108.559 45.6113 108.846 45.5352 109.049 45.3828C109.256 45.2344 109.426 44.9648 109.559 44.5742L109.793 43.9297L107.531 37.6602H108.715Z" fill="white"/>
</svg>
